HIERARCHY
ROOT ui
{
	 OFFSET 0 0 0
	 CHANNELS 3 XPosition YPosition Z Position
	 EndSite
	 {
	 OFFSET 0 -1 0
	 }
}
ROOT li
{
	 OFFSET 0 0 0
	 CHANNELS 3 XPosition YPosition Z Position
	 EndSite
	 {
	 OFFSET 0 -1 0
	 }
}
ROOT ul
{
	 OFFSET 0 0 0
	 CHANNELS 3 XPosition YPosition Z Position
	 EndSite
	 {
	 OFFSET 0 -1 0
	 }
}
ROOT ll
{
	 OFFSET 0 0 0
	 CHANNELS 3 XPosition YPosition Z Position
	 EndSite
	 {
	 OFFSET 0 -1 0
	 }
}
ROOT tt
{
	 OFFSET 0 0 0
	 CHANNELS 3 XPosition YPosition Z Position
	 EndSite
	 {
	 OFFSET 0 -1 0
	 }
}
ROOT tb
{
	 OFFSET 0 0 0
	 CHANNELS 3 XPosition YPosition Z Position
	 EndSite
	 {
	 OFFSET 0 -1 0
	 }
}
ROOT td
{
	 OFFSET 0 0 0
	 CHANNELS 3 XPosition YPosition Z Position
	 EndSite
	 {
	 OFFSET 0 -1 0
	 }
}
ROOT v
{
	 OFFSET 0 0 0
	 CHANNELS 3 XPosition YPosition Z Position
	 EndSite
	 {
	 OFFSET 0 -1 0
	 }
}
ROOT bn
{
	 OFFSET 0 0 0
	 CHANNELS 3 XPosition YPosition Z Position
	 EndSite
	 {
	 OFFSET 0 -1 0
	 }
}
MOTION
Frames: 29
Frame Time: 0.002
0.003656332015991211	-6.327130198478699E-4	0		0.45377755737304687	-2.438755126953125	0		-1.1521695556640625	-0.032375476837158204	0		-0.7320391235351562	-2.36590087890625	0		0.9111021728515625	-0.6092245483398437	0		2.5748359375	0.035848865509033205	0		4.220068359375	-0.019851375579833984	0		5.54203955078125	0.22900784301757812	0		-0.33394363403320315	5.889962890625	0		
-0.002220953941345215	-0.00702195692062378	0		0.5028772277832031	-2.44919384765625	0		-1.2009228515625	-0.03195964813232422	0		-0.768751708984375	-2.365708251953125	0		0.8835095825195313	-0.6011763305664063	0		2.576091552734375	0.036370948791503904	0		4.2172294921875	-0.024221107482910155	0		5.547119140625	0.2176943359375	0		-0.3327959594726563	5.890431640625	0		
-0.049923786163330076	-0.004614381790161133	0		0.5041916198730468	-2.44871875	0		-1.16366015625	-0.03220830535888672	0		-0.7365791625976562	-2.372851318359375	0		0.881732421875	-0.6036358642578125	0		2.590299560546875	0.033635356903076175	0		4.20750048828125	-0.023465295791625977	0		5.54916455078125	0.18228541564941406	0		-0.33163690185546874	5.89089111328125	0		
3.1206798553466795E-4	-0.00610362720489502	0		0.45460650634765626	-2.4422783203125	0		-1.225403076171875	-0.0315671443939209	0		-0.80106689453125	-2.361146728515625	0		0.88989111328125	-0.6093002319335937	0		2.62290283203125	0.05153732299804688	0		4.2118798828125	-0.01699332809448242	0		5.55719873046875	0.18291067504882813	0		-0.33048223876953126	5.89133740234375	0		
-0.0033442790508270265	-5.722389817237854E-4	0		0.49271804809570313	-2.4515419921875	0		-1.147131591796875	-0.030630878448486328	0		-0.7529586791992188	-2.370625	0		0.9000896606445312	-0.6120198364257813	0		2.585002197265625	0.044771133422851564	0		4.2172412109375	-0.010558311462402343	0		5.55205517578125	0.23256658935546876	0		-0.3293425903320312	5.891767578125	0		
0.009911821365356446	0.0016153709888458252	0		0.4592170715332031	-2.438446533203125	0		-1.1887882080078125	-0.023409500122070312	0		-0.7964783325195313	-2.358359375	0		0.8982440795898438	-0.61552783203125	0		2.638326904296875	0.050236167907714846	0		4.21434716796875	-0.01598915958404541	0		5.55069091796875	0.2214451141357422	0		-0.3282250061035156	5.89218017578125	0		
0.003963223934173584	-0.004850870132446289	0		0.5092784423828125	-2.44697802734375	0		-1.1528590087890624	-0.03669846725463867	0		-0.7304595336914063	-2.36921728515625	0		0.88974658203125	-0.598926513671875	0		2.59767138671875	0.05947998809814453	0		4.2147998046875	-0.0015063389539718627	0		5.55153759765625	0.22228585815429688	0		-0.3271358642578125	5.8925732421875	0		
0.0051017308235168455	-0.004473639965057373	0		0.4575191650390625	-2.44257958984375	0		-1.1935975341796874	-0.02953508186340332	0		-0.7652613525390625	-2.36716162109375	0		0.9108134155273437	-0.6029186401367187	0		2.586868408203125	0.06312363052368164	0		4.216669921875	-0.015085161209106445	0		5.55235107421875	0.2230736083984375	0		-0.3270627746582031	5.89396435546875	0		
0.006183019161224365	-0.004117973804473877	0		0.519350830078125	-2.4573828125	0		-1.150638427734375	-0.0359961051940918	0		-0.753306640625	-2.375024169921875	0		0.8958091430664062	-0.6072451171875	0		2.599889404296875	0.06028134918212891	0		4.20986767578125	-0.00852693271636963	0		5.5542626953125	0.1874123992919922	0		-0.3240910339355469	5.8922783203125	0		
-0.03564422988891602	0.005037143230438233	0		0.4746229248046875	-2.444166259765625	0		-1.2085579833984375	-0.0315447006225586	0		-0.7471593627929688	-2.36879345703125	0		0.9078245849609375	-0.6071128540039062	0		2.658138916015625	0.0725472640991211	0		4.21326171875	0.011803895950317382	0		5.5643505859375	0.1997544403076172	0		-0.45354873657226563	5.872099609375	0		
0.015258969306945801	0.0033954229354858398	0		0.5264447631835938	-2.4508232421875	0		-1.1405621337890626	-0.02851915740966797	0		-0.747251953125	-2.37046435546875	0		0.8970103149414063	-0.5935665893554688	0		2.60696484375	0.06787184143066406	0		4.2220771484375	0.005990840911865234	0		5.55451025390625	0.22506468200683594	0		-0.3232166748046875	5.89394091796875	0		
-0.040002971649169924	-0.00123934805393219	0		0.4634970092773438	-2.439306640625	0		-1.1897294921875	-0.02827277374267578	0		-0.7613236083984375	-2.365886474609375	0		0.914698486328125	-0.601593505859375	0		2.60780712890625	0.06817313385009766	0		4.21395947265625	0.008468328475952148	0		5.555111328125	0.2255998077392578	0		-0.32239083862304685	5.89423388671875	0		
0.009717020988464355	-0.0029017260074615477	0		0.5131028442382812	-2.4469677734375	0		-1.147103759765625	-0.03480071258544922	0		-0.7626129150390625	-2.36757421875	0		0.9052191772460938	-0.613126220703125	0		2.598518798828125	0.06663899230957031	0		4.22055322265625	6.298699975013733E-4	0		5.55564501953125	0.2260755615234375	0		-0.334832763671875	5.8847578125	0		
-0.03860345840454102	-7.117030024528504E-4	0		0.4726806640625	-2.4499306640625	0		-1.1824267578125	-0.032856925964355466	0		-0.751120849609375	-2.37552783203125	0		0.921981201171875	-0.6071810913085938	0		2.61533935546875	0.07558031463623047	0		4.22431884765625	0.006817080974578857	0		5.55606884765625	0.22130741882324217	0		-0.3200005798339844	5.8937431640625	0		
0.010924828529357911	-0.0024140379428863527	0		0.5281990356445313	-2.45174951171875	0		-1.2147879638671875	-0.027988576889038087	0		-0.78143359375	-2.367699951171875	0		0.8967312622070313	-0.5964552001953125	0		2.60485986328125	0.07401551818847656	0		4.2231435546875	0.021071517944335937	0		5.56477685546875	0.1901470947265625	0		-0.3194229431152344	5.89397802734375	0		
-0.043484039306640625	0.004851407051086426	0		0.4679513244628906	-2.43537353515625	0		-1.17734765625	-0.029474910736083985	0		-0.758925537109375	-2.36490234375	0		0.92017138671875	-0.5976842651367188	0		2.62830322265625	0.07277810668945313	0		4.22049560546875	0.015324201583862305	0		5.55683837890625	0.22719293212890626	0		-0.3189276428222656	5.89419482421875	0		
0.011776445388793945	-0.0020024969577789307	0		0.515122314453125	-2.44607666015625	0		-1.1509290771484375	-0.02776890563964844	0		-0.7477092895507812	-2.372909912109375	0		0.8945196533203125	-0.598995361328125	0		2.61084521484375	0.08130206298828126	0		4.23187890625	0.015285531997680664	0		5.5571123046875	0.22747744750976562	0		-0.3194881591796875	5.895412109375	0		
-0.03687853622436523	1.1375100165605545E-4	0		0.5154228515625	-2.445901123046875	0		-1.144728271484375	-0.03369589233398437	0		-0.7253549194335938	-2.3701474609375	0		0.9206173095703125	-0.6103178100585938	0		2.5871669921875	0.0819227294921875	0		4.2211982421875	0.015646595001220703	0		5.561466796875	0.20849876403808593	0		-0.3191316833496094	5.89559326171875	0		
0.012358243942260743	-0.0016618640422821046	0		0.5234385375976562	-2.45789404296875	0		-1.1804378662109376	-0.031836769104003904	0		-0.7841541137695313	-2.3718505859375	0		0.907841796875	-0.61191357421875	0		2.5952587890625	0.07291398620605469	0		4.22457763671875	0.021718761444091798	0		5.55752685546875	0.22793434143066407	0		-0.31686196899414065	5.8937197265625	0		
0.024625749588012696	2.531810104846954E-4	0		0.503845458984375	-2.447371826171875	0		-1.136099853515625	-0.026525659561157225	0		-0.7350846557617188	-2.379635986328125	0		0.9331212158203125	-0.6092548217773438	0		2.621926513671875	0.09553643035888672	0		4.22277099609375	0.019868898391723632	0		5.5617783203125	0.20369593811035155	0		-0.3014137878417969	5.90257861328125	0		
0.019938074111938476	0.005477344989776612	0		0.50607763671875	-2.445285400390625	0		-1.171858642578125	-0.024696752548217772	0		-0.744715576171875	-2.37031005859375	0		0.895530029296875	-0.5984073486328125	0		2.594013916015625	0.08918072509765625	0		4.2321767578125	0.029787277221679686	0		5.56197265625	0.20902664184570313	0		-0.31729693603515624	5.8950185546875	0		
0.013018765449523927	-0.0012731720209121704	0		0.5183035278320313	-2.443406494140625	0		-1.1438038330078124	-0.03310634994506836	0		-0.7245095825195312	-2.369572021484375	0		0.9156574096679687	-0.6026843872070312	0		2.594228271484375	0.0892697525024414	0		4.2162978515625	0.025167985916137694	0		5.5579951171875	0.22835807800292968	0		-0.31702615356445313	5.8951357421875	0		
0.01914215660095215	-0.006288362979888916	0		0.4733517456054688	-2.45044873046875	0		-1.1836148681640626	-0.034227108001708986	0		-0.7484069213867187	-2.37400390625	0		0.9158711547851562	-0.602595458984375	0		2.60127587890625	0.08020755767822266	0		4.2284970703125	0.0239904842376709	0		5.555189453125	0.2147205047607422	0		-0.31674053955078124	5.89523876953125	0		
0.01347111988067627	-0.001090054988861084	0		0.5264848022460937	-2.454386962890625	0		-1.179326416015625	-0.031204843521118165	0		-0.7482055053710938	-2.373909912109375	0		0.899983154296875	-0.6082147216796875	0		2.59983544921875	0.09729362487792968	0		4.220865234375	0.031172569274902345	0		5.55945458984375	0.1920599822998047	0		-0.31545196533203124	5.89430810546875	0		
0.0137153959274292	-0.001019683003425598	0		0.478892822265625	-2.443404296875	0		-1.216056640625	-0.029405950546264648	0		-0.7808950805664062	-2.368195068359375	0		0.9122352294921875	-0.6073884887695312	0		2.594928466796875	0.08942228698730469	0		4.23308837890625	0.029948862075805664	0		5.560724609375	0.2404369659423828	0		-0.4484779052734375	5.87694140625	0		
0.021102109909057618	0.005902546882629395	0		0.5309783325195313	-2.45035302734375	0		-1.1387794189453124	-0.028806791305541993	0		-0.7457474365234374	-2.371795166015625	0		0.9124779663085938	-0.60734619140625	0		2.60033642578125	0.09733732604980469	0		4.2275166015625	0.03904632949829102	0		5.55866845703125	0.22836381530761718	0		-0.31574163818359374	5.89546630859375	0		
0.014224328994750977	-9.143720269203186E-4	0		0.46842800903320314	-2.43710595703125	0		-1.1785748291015625	-0.03096651268005371	0		-0.747576904296875	-2.373694091796875	0		0.925757568359375	-0.6055672607421875	0		2.607400146484375	0.08720061492919921	0		4.2335986328125	0.029896535873413087	0		5.56297705078125	0.2090335693359375	0		-0.31536968994140624	5.89552001953125	0		
0.014470577239990234	-8.769969940185546E-4	0		0.5164208374023438	-2.4480009765625	0		-1.142355224609375	-0.03259708404541015	0		-0.76026318359375	-2.36739111328125	0		0.920107666015625	-0.599434814453125	0		2.60084228515625	0.09731578063964844	0		4.23384521484375	0.029844085693359376	0		5.55902294921875	0.22812428283691405	0		-0.3149979248046875	5.895564453125	0		
-0.054351661682128904	-0.0025172719955444335	0		0.47453924560546873	-2.450173095703125	0		-1.2150809326171874	-0.029135459899902343	0		-0.749249267578125	-2.375556396484375	0		0.8973406982421875	-0.597983154296875	0		2.601067138671875	0.09728673553466796	0		4.23406884765625	0.029778785705566406	0		5.56744873046875	0.19124099731445313	0		-0.29947341918945314	5.90430908203125	0		
